<svg width="123" height="115" viewBox="0 0 123 115" fill="none" xmlns="http://www.w3.org/2000/svg">
<path d="M95.5481 115L79.8611 97.8869L86.4782 91.2698L95.5481 100.34L116.027 79.8611L122.644 87.9043L95.5481 115ZM51.3393 74.1567H62.748V85.5655H51.3393V74.1567ZM51.3393 28.5218H62.748V62.748H51.3393V28.5218ZM57.0437 0C88.4177 0 114.087 25.6696 114.087 57.0437L113.631 64.5164C110.151 63.3755 106.501 62.748 102.336 62.748L102.679 57.0437C102.679 31.8304 82.2569 11.4087 57.0437 11.4087C31.8304 11.4087 11.4087 31.8304 11.4087 57.0437C11.4087 82.2569 31.8304 102.679 57.0437 102.679C61.0937 102.679 64.9727 102.165 68.7376 101.195C69.194 105.074 70.3348 108.725 71.9891 112.091C67.1974 113.403 62.1776 114.087 57.0437 114.087C25.4985 114.087 0 88.4177 0 57.0437C0 25.6696 25.4985 0 57.0437 0Z" />
</svg>
