<svg width="116" height="115" viewBox="0 0 116 115" fill="none" xmlns="http://www.w3.org/2000/svg">
<path d="M57.6402 0C65.2838 0 72.6143 3.02901 78.0192 8.42068C83.424 13.8123 86.4604 21.125 86.4604 28.75C86.4604 36.375 83.424 43.6877 78.0192 49.0793C72.6143 54.471 65.2838 57.5 57.6402 57.5C49.9967 57.5 42.6662 54.471 37.2613 49.0793C31.8565 43.6877 28.8201 36.375 28.8201 28.75C28.8201 21.125 31.8565 13.8123 37.2613 8.42068C42.6662 3.02901 49.9967 0 57.6402 0ZM57.6402 71.875C89.4865 71.875 115.28 84.7406 115.28 100.625V115H0V100.625C0 84.7406 25.794 71.875 57.6402 71.875Z"/>
</svg>
