<svg width="87" height="115" viewBox="0 0 87 115" fill="none" xmlns="http://www.w3.org/2000/svg">
<path d="M43.4756 10.9524C55.4314 10.9524 65.2134 20.8095 65.2134 32.8571C65.2134 44.3571 53.8011 62.9762 43.4756 76.119C33.1502 62.4286 21.7378 44.3571 21.7378 32.8571C21.7378 20.8095 31.5198 10.9524 43.4756 10.9524ZM43.4756 0C25.5419 0 10.8689 14.7857 10.8689 32.8571C10.8689 57.5 43.4756 93.0952 43.4756 93.0952C43.4756 93.0952 76.0823 56.9524 76.0823 32.8571C76.0823 14.7857 61.4093 0 43.4756 0ZM43.4756 21.9048C37.4977 21.9048 32.6067 26.8333 32.6067 32.8571C32.6067 38.881 37.4977 43.8095 43.4756 43.8095C49.4535 43.8095 54.3445 38.881 54.3445 32.8571C54.3445 26.8333 49.4535 21.9048 43.4756 21.9048ZM86.9512 93.0952C86.9512 105.143 67.3872 115 43.4756 115C19.564 115 0 105.143 0 93.0952C0 85.9762 6.52134 79.9524 16.8468 75.5714L20.1075 80.5C14.673 83.2381 10.8689 86.5238 10.8689 90.3571C10.8689 98.0238 25.5419 104.048 43.4756 104.048C61.4093 104.048 76.0823 98.0238 76.0823 90.3571C76.0823 86.5238 72.2782 83.2381 66.3003 80.5L69.561 75.5714C80.4299 79.9524 86.9512 85.9762 86.9512 93.0952Z" />
</svg>
