<svg width="87" height="115" viewBox="0 0 87 115" fill="none" xmlns="http://www.w3.org/2000/svg">
<path d="M86.25 27.3891V28.75H57.5V0H58.8609C60.2905 7.47491e-06 61.6616 0.567908 62.6725 1.57878L84.671 23.5772C85.682 24.5882 86.2499 25.9594 86.25 27.3891ZM55.7031 35.9375C52.7383 35.9375 50.3125 33.5117 50.3125 30.5469V0H5.39062C2.41343 0 0 2.41343 0 5.39062V109.609C0 112.587 2.41343 115 5.39062 115H80.8594C83.8366 115 86.25 112.587 86.25 109.609V35.9375H55.7031ZM25.2787 39.5312C31.2331 39.5312 36.0599 44.3581 36.0599 50.3125C36.0599 56.2669 31.2331 61.0938 25.2787 61.0938C19.3243 61.0938 14.4974 56.2669 14.4974 50.3125C14.4974 44.3581 19.3245 39.5312 25.2787 39.5312ZM71.9974 93.4375H14.4974L14.6063 82.5473L23.4818 73.6719C24.5343 72.6194 26.132 72.7283 27.1845 73.7808L36.0599 82.6562L59.3104 59.4058C60.3629 58.3533 62.0695 58.3533 63.1222 59.4058L71.9974 68.2812V93.4375Z" fill="#304269"/>
</svg>
