<svg width="116" height="115" viewBox="0 0 116 115" fill="none" xmlns="http://www.w3.org/2000/svg">
<path d="M42.8185 0C54.1746 0 65.0657 4.50024 73.0957 12.5107C81.1257 20.5212 85.6369 31.3858 85.6369 42.7143C85.6369 53.2943 81.7503 63.02 75.3605 70.5114L77.1391 72.2857H82.3432L115.28 105.143L105.399 115L72.462 82.1429V76.9514L70.6834 75.1771C63.1737 81.5514 53.4243 85.4286 42.8185 85.4286C31.4623 85.4286 20.5713 80.9283 12.5412 72.9179C4.51122 64.9074 0 54.0428 0 42.7143C0 31.3858 4.51122 20.5212 12.5412 12.5107C20.5713 4.50024 31.4623 0 42.8185 0V0ZM42.8185 13.1429C26.3498 13.1429 13.1749 26.2857 13.1749 42.7143C13.1749 59.1429 26.3498 72.2857 42.8185 72.2857C59.2871 72.2857 72.462 59.1429 72.462 42.7143C72.462 26.2857 59.2871 13.1429 42.8185 13.1429Z"/>
</svg>
