<svg width="121" height="115" viewBox="0 0 121 115" fill="none" xmlns="http://www.w3.org/2000/svg">
<path d="M120.476 57.5L107.333 42.1667L108.976 21.9048L89.2619 17.5238L78.8571 0L60.2381 8.21429L41.619 0L31.2143 17.5238L11.5 21.9048L13.1429 42.1667L0 57.5L13.1429 72.8333L11.5 93.0952L31.2143 97.4762L41.619 115L60.2381 106.786L78.8571 115L89.2619 97.4762L108.976 93.0952L107.333 72.8333L120.476 57.5ZM96.9286 84.3333L82.1429 87.619L74.4762 100.762L60.2381 94.7381L46 100.762L38.3333 87.619L23.5476 84.3333L24.6429 69L14.7857 57.5L24.6429 46L23.5476 30.6667L38.3333 27.381L46 14.2381L60.2381 20.2619L74.4762 14.2381L82.1429 27.381L96.9286 30.6667L95.8333 46L105.69 57.5L95.8333 69L96.9286 84.3333ZM85.4286 33.4048L93.0952 41.0714L49.2857 84.881L27.381 62.9762L35.0476 55.3095L49.2857 69.5476L85.4286 33.4048Z"/>
</svg>
