<svg width="160" height="115" viewBox="0 0 160 115" fill="none" xmlns="http://www.w3.org/2000/svg">
<path d="M0 25.1562H70.0781L75.4688 35.9375H5.39063L0 25.1562ZM7.1875 46.7188H77.2656L82.6563 57.5H12.5781L7.1875 46.7188ZM123.984 104.219C129.95 104.219 134.766 99.4031 134.766 93.4375C134.766 87.4719 129.95 82.6562 123.984 82.6562C118.019 82.6562 113.203 87.4719 113.203 93.4375C113.203 99.4031 118.019 104.219 123.984 104.219ZM134.766 39.5312H116.797V57.5H148.853L134.766 39.5312ZM52.1094 104.219C58.075 104.219 62.8906 99.4031 62.8906 93.4375C62.8906 87.4719 58.075 82.6562 52.1094 82.6562C46.1438 82.6562 41.3281 87.4719 41.3281 93.4375C41.3281 99.4031 46.1438 104.219 52.1094 104.219ZM138.359 28.75L159.922 57.5V93.4375H145.547C145.547 105.369 135.916 115 123.984 115C112.053 115 102.422 105.369 102.422 93.4375H73.6719C73.6719 105.369 63.9688 115 52.1094 115C40.1781 115 30.5469 105.369 30.5469 93.4375H16.1719V68.2812H30.5469V79.0625H36.0094C39.9625 74.6781 45.7125 71.875 52.1094 71.875C58.5063 71.875 64.2563 74.6781 68.2094 79.0625H102.422V14.375H16.1719C16.1719 6.39687 22.5688 0 30.5469 0H116.797V28.75H138.359Z" fill="#304269"/>
</svg>
